inDegrees=no
num_controls=7
num_derivatives=13
num_iterations=151
num_multipliers=7
num_parameters=0
num_slacks=7
num_states=26
objective=5.654951
objective_accelerations=0.595708
objective_balance=0.018035
objective_effort=0.452353
objective_height=4.495491
objective_ligament=0.093364
solver_duration=1309.967879
status=Solve_Succeeded
success=true
DataType=double
version=3
OpenSimVersion=4.4-2022-07-23-0e9fedc
endheader
time	/jointset/ground_pelvis/pelvis_tilt/value	/jointset/ground_pelvis/pelvis_tx/value	/jointset/ground_pelvis/pelvis_ty/value	/jointset/hip_r/hip_flexion_r/value	/jointset/hip_r/hip_adduction_r/value	/jointset/hip_r/hip_rotation_r/value	/jointset/back/lumbar_extension/value	/jointset/patellofemoral_r/patellar_flexion_r/value	/jointset/knee_r/knee_flexion_r/value	/jointset/knee_r/knee_adduction_r/value	/jointset/knee_r/knee_rotation_r/value	/jointset/ankle_r/ankle_angle_r/value	/jointset/subtalar_r/subtalar_angle_r/value	/jointset/ground_pelvis/pelvis_tilt/speed	/jointset/ground_pelvis/pelvis_tx/speed	/jointset/ground_pelvis/pelvis_ty/speed	/jointset/hip_r/hip_flexion_r/speed	/jointset/hip_r/hip_adduction_r/speed	/jointset/hip_r/hip_rotation_r/speed	/jointset/back/lumbar_extension/speed	/jointset/patellofemoral_r/patellar_flexion_r/speed	/jointset/knee_r/knee_flexion_r/speed	/jointset/knee_r/knee_adduction_r/speed	/jointset/knee_r/knee_rotation_r/speed	/jointset/ankle_r/ankle_angle_r/speed	/jointset/subtalar_r/subtalar_angle_r/speed	/forceset/tau_hip_flexion_r	/forceset/tau_hip_adduction_r	/forceset/tau_hip_rotation_r	/forceset/tau_knee_flexion_r	/forceset/tau_ankle_angle_r	/forceset/tau_subtalar_angle_r	/forceset/tau_lumbar_extension	lambda_cid13_p0	lambda_cid14_p0	lambda_cid14_p1	lambda_cid14_p2	lambda_cid14_p3	lambda_cid14_p4	lambda_cid14_p5	/jointset/ground_pelvis/pelvis_tilt/accel	/jointset/ground_pelvis/pelvis_tx/accel	/jointset/ground_pelvis/pelvis_ty/accel	/jointset/hip_r/hip_flexion_r/accel	/jointset/hip_r/hip_adduction_r/accel	/jointset/hip_r/hip_rotation_r/accel	/jointset/back/lumbar_extension/accel	/jointset/patellofemoral_r/patellar_flexion_r/accel	/jointset/knee_r/knee_flexion_r/accel	/jointset/knee_r/knee_adduction_r/accel	/jointset/knee_r/knee_rotation_r/accel	/jointset/ankle_r/ankle_angle_r/accel	/jointset/subtalar_r/subtalar_angle_r/accel	gamma_cid13_p0	gamma_cid14_p0	gamma_cid14_p1	gamma_cid14_p2	gamma_cid14_p3	gamma_cid14_p4	gamma_cid14_p5
1	-0.2314420776837022	-0.01041920257943117	0.6395575776510685	1.413611273962301	-0.2380840453917905	-0.0907149259735338	-0.7853981490846148	1.499014449381007	1.499014449380988	-0.174532907068081	0.1745316110019695	0.4362372746817786	0.1762829739996325	0.07038189262724148	0.005696590839554899	0.01506605753693254	-0.1010396755850586	-0.001151742167340438	-0.002895469642750878	-0.000111140537544439	-0.01625499578878249	-0.01625499578878038	0.00290601357531018	-0.0002505183949067602	0.01450164490209357	0.005377399741264716	-0.3313725009483583	0.02029589677028978	0.01041768474401456	-0.4570013469408453	-0.02519303376581007	0.01174062245235405	0.356356149975659	-0.04117021601979846	-58.93276731924097	-7.700530351503821	4.483258474957953	7.144802279323041	-767.7984026408596	75.81717421578924	1.283524277122596	0.1589545860239292	1.79568735716908	-5.405450658379699	0.2725736396053522	-0.711027967327798	-0.02607547598177786	-4.991240998859971	-4.991240998859737	0.5299783890424659	-0.02994721779014663	-1.003458728447621	0.01447745880836143	1.562775216655161e-09	7.438639783416756e-10	1.031594305723329e-08	9.801725680978834e-09	1.537627647551521e-09	-5.951187828920311e-09	1.913130616660759e-08
1.01	-0.2306751590572361	-0.01035413108697211	0.6397978656319631	1.412331714453785	-0.2380820133252091	-0.09077665832232863	-0.7853980826834046	1.498602819550987	1.498602819550967	-0.1744745432083192	0.1745272363931509	0.4363322921138908	0.1763373417319742	0.08295907269229713	0.007336756135169778	0.03298844987986395	-0.154849884484558	0.001550466681139342	-0.009402443944460735	0.0002982576585390612	-0.06606523444517333	-0.06606523444517533	0.008825203684532748	-0.0006213676929223085	0.004522312401166432	0.005490616537982289	-0.3320082368281839	0.0203268898170265	0.01048646189702289	-0.4570677031831086	-0.02531228521376783	0.01173978922393294	0.3573029778626473	-0.04116564935228587	-59.00180881632242	-7.712703842560627	4.484882993654848	6.915949931281024	-768.4202137079611	75.83745582578842	1.238402456810582	0.1694050809924302	1.790049467608188	-5.365453424335578	0.2678953863652572	-0.6132471581574038	0.1005230082583909	-4.975055829591259	-4.975055829592011	0.6316564739487437	-0.0401898777755651	-0.9921002955477504	0.008922699257950381	4.451728209775717e-09	4.227040430027856e-09	3.04065978302262e-08	3.056822720982049e-08	1.535065443836706e-09	-1.189457665909753e-08	5.833692197099235e-08
1.02	-0.229783751112996	-0.01027208642562433	0.6402172843952377	1.41051472337256	-0.2380531889943619	-0.09090200341346809	-0.7853887071925797	1.497693259228291	1.497693259228271	-0.1743552340170387	0.1745192460728503	0.4363281302642106	0.1763926774141138	0.09527975618189498	0.009091224617297888	0.05089221401291198	-0.2085259901280764	0.004206710685464353	-0.01561801810877218	0.001750677488822706	-0.1158410943240678	-0.1158410943240753	0.01509507987722299	-0.0009736606696571223	-0.005334211485060463	0.005570989700869541	-0.3326439727079865	0.02035788286372883	0.01055523905008494	-0.4571340594253659	-0.02543153666173979	0.01173895599543876	0.3582498057496564	-0.04116865968991654	-59.0788072274633	-7.72308081096851	4.482577300677849	6.68857604520113	-769.1684797480796	75.88793598386783	1.232224962031001	0.1818152233266529	1.791961715192403	-5.378630007183554	0.2633806707741769	-0.6527479398483417	0.1825288508586975	-4.984365243360654	-4.984365243360688	0.600115605736078	-0.02623595353347401	-0.9788970055074692	0.007908732041939344	9.67882246197213e-09	1.34320716258571e-08	6.338104970561891e-08	6.956450865404573e-08	-4.920999336169909e-09	-1.886063068398692e-08	1.284477740218132e-07
1.03	-0.2287704815042863	-0.0101720160451142	0.6408155991745311	1.408161912064611	-0.2379980740036874	-0.09108812973637849	-0.7853594842349535	1.49628599307389	1.496285993073871	-0.1741714337020271	0.1745080317425367	0.436225662593351	0.176448389413704	0.1073233856257728	0.01093294760140954	0.06876266761409085	-0.2619853161728705	0.006805649261571749	-0.02156913820640417	0.004280931556622113	-0.1656186404460777	-0.1656186404460795	0.02172333029325408	-0.001248567607647149	-0.01517400839207193	0.005542170515500746	-0.3333677893431681	0.02058017657572307	0.01062813986787822	-0.4565109444035948	-0.026407810138132	0.0117560542023361	0.35921344031697	-0.04119086996761283	-59.42472315050217	-7.761429569229753	4.47179431865615	6.833208476845043	-769.6898319607874	75.80870205197537	1.182819775629075	0.1868629254121906	1.783370838113581	-5.321936128241791	0.2565689706202346	-0.5605704127683618	0.3163263123879143	-4.9754278978432	-4.975427897842312	0.7029312173323964	-0.02499246680232393	-0.988723715900847	-0.01263511048038737	1.492977529844484e-08	2.26954890945858e-08	9.648696889838313e-08	1.087468082606729e-07	-1.144291618328158e-08	-2.583712006800603e-08	1.988739856261693e-07
1.04	-0.2276382980331264	-0.0100532260168711	0.6415923752209429	1.405276037051178	-0.237917285923334	-0.0913326225338878	-0.7852993482111056	1.494380755738025	1.494380755738024	-0.1739196005913065	0.1744946934621515	0.4360243564168974	0.1765029416481096	0.1190625286721652	0.01283515416389284	0.08658446743656396	-0.3151387312222451	0.009341328621336704	-0.02729131302595219	0.007933290730311456	-0.2154353306169704	-0.215435330616966	0.02870163902112034	-0.001398450660453998	-0.02510191260319912	0.005339036663963103	-0.3340916059784095	0.02080247028768151	0.01070104068578372	-0.4558878293818149	-0.02738408361452577	0.01177315240916285	0.3601770748842271	-0.04122062597789793	-59.77860380120361	-7.797635973624404	4.456629406487822	6.977404976069376	-770.3399752785222	75.76110096436281	1.171327682533911	0.1939119390010059	1.782230959451253	-5.317447808099655	0.2507288275055743	-0.6069588842316622	0.4069498720366275	-4.992194053137196	-4.99219405313713	0.670127268103154	-0.001231176496562129	-0.9965184663305935	-0.0269542011920281	2.020937044092417e-08	3.081642823758639e-08	1.239055021835166e-07	1.484083892033377e-07	-1.572197126903443e-08	-3.182408847751086e-08	2.630164575096681e-07
